<svg xmlns="http://www.w3.org/2000/svg" viewBox="0 0 211.5 150.05"><defs><style>.cls-1,.cls-2,.cls-3{fill:#2e3b49;}.cls-2{fill-rule:evenodd;}.cls-3{font-size:32px;font-family:TimesNewRomanPSMT, Times New Roman;}</style></defs><title>Asset 2</title><g id="Layer_2" data-name="Layer 2"><g id="Layer_1-2" data-name="Layer 1"><line class="cls-1" y1="44.42" x2="211.5" y2="44.42"/><rect class="cls-1" y="43.17" width="211.5" height="2.5"/><path class="cls-2" d="M53,37.19A7.47,7.47,0,0,0,49,30.74h0c-2.28-1.45-6.56-.49-6.39,3.29.08,1.75,2.78,3.88,4.51,1.89A1.76,1.76,0,0,0,47,33.29a2.42,2.42,0,0,0-2.54,0c1.51.69,1.25,2.88-.35,2.15C42.86,34.68,43,33,43.7,31.91c.92-1.3,3.11-1.46,4.74-.82a6.92,6.92,0,0,1,.81.43c3,2.05,3.71,5.1,2.83,7.42-1.4,3.71-7.13,5.88-12,.59-1.61-1.73-2.17-5.49-1.79-8.6.68-8.09,7.93-12.83,14.81-12.71,4.32.07,14.12,6.05,18.73,11.8,4.29,5.34,8.84,8.8,13.11,10.3,8.21,2.89,16.89-1.06,21.91-8,4.19-5.78,3.38-10.8-.14-15.74a13.39,13.39,0,0,0-1.72-2c1.67-5.41,0-10.42-4.5-11.51-4.1-1-7.77,3.68-8.34,7.51C82.28,12.75,76,25.62,87.17,29.5c8.71,3,15-4.67,17.39-13.33,4,4.21,5.35,9.59,1.47,15-5,7.08-14,10.74-20.91,8.14-4.6-1.72-8.92-6-14.65-12.82-5.42-6.44-14.65-11.47-22.48-9C39.47,20.21,33.58,27,36.36,37.05c1.34,4.89,8.1,8.26,13,5.81A6.05,6.05,0,0,0,53,37.19ZM92.8,10.43c.74-3.43,3.35-7.38,7.43-6.63,3.84.71,5.44,5.69,4,10.11A13.8,13.8,0,0,0,92.8,10.43Zm11.09,5.06c-2.34,8.45-8.12,16.34-16.69,13.28-8.81-3.15-3.61-14.23,4.7-16.65-.18,2.31.25,4.69,2.21,5.35a4.19,4.19,0,0,0,3.65-.68c-2.06,1-3.3.57-4.1,0-1.33-1-1.29-3-1.1-4.83C96.11,11.12,100.15,11.9,103.89,15.49Z"/><path class="cls-2" d="M75.5,33c-1.09-.48-1.56-2.54-2.57-3.22-5.32-3.61-8.74-10.09-8.3-15.1.49-5.47,2.31-9,5.63-12s7.92-3,9.72-2.2c1.41.64,2.88,2.11,1.74,3.57s-2.68.26-3.25-.39a4.74,4.74,0,0,0-4.61-1.39c-2.26.36-6.67,4.23-7.79,8.66a2.09,2.09,0,0,0,0,.21,10,10,0,0,1,2-3.78c1.37-1.42,3.74-2.92,6.37-1.1,2.39,1.63,1.61,3.68,1.35,4s-1.46.91-2.13-.94-1.48-2.52-2.73-2.62A4.23,4.23,0,0,0,67.63,8.2,15.16,15.16,0,0,0,66,11.28a14.75,14.75,0,0,0,.13,8.88A14.63,14.63,0,0,1,65.68,18c-.36-2.67.42-5.55,2.49-6.43,2.24-1,3,.22,3.16,1.27s-.89,1.52-1.33,1.2a1.36,1.36,0,0,1-.47-.9s-.26-1.09-1.51-.54-2,2.21-2.12,4.2a12.8,12.8,0,0,0,.72,4.58,27.51,27.51,0,0,0,3.24,5.14Z"/><path class="cls-2" d="M73.19,30.13a11.6,11.6,0,0,0-1.6-3.3c-1.79-2.12-3.24-4-2.42-7.61.78-3.38,5.6-7.08,9.2-3.53,1.67,1.64-.29,2.24-1,3.68-.93,1.69.52,3.16,1.35,4.05-1.57-2,.66-3.38,1-5.08a4.24,4.24,0,0,0-1.51-3.49c-2.63-2.46-7.06-.4-8.6,2.34C65,25.28,73.52,31,73.19,30.13"/><path class="cls-2" d="M63.77,11.24A8.18,8.18,0,0,1,65.11,18c-.22-.1-.35-.82-.35-.82a7,7,0,0,0-1.2-5c-2.85-3.43-6.71-3.92-9.22-2.76S51.71,12,51.71,12c-.87-1.74.28-2.48.28-2.48s-2.41,1.44-2.75,3.59l-.61-.23a5.22,5.22,0,0,1,3.08-4.15,10.31,10.31,0,0,1,12.06,2.56"/><path class="cls-2" d="M48.28,45.28C35,45.17,15.61,24,35.36,19.26c-13,1.11-12.4,16.91,3.86,26.19Z"/><path class="cls-2" d="M36.58,44.23c-.88-.08-2.42.22-3-.08C7.26,30,15.6,3.28,29.33,18.12,12.08,4,12.41,33.67,36.58,44.23Z"/><path class="cls-2" d="M29.76,44.54c-8.18-5.3-12.06-12.91-13-16,.72,4.29,5.17,11.75,11.8,16.07Z"/><path class="cls-2" d="M67.33,52.27a26,26,0,0,1-4-4.53,44.69,44.69,0,0,1-3-5,54.57,54.57,0,0,1-2.25-5c-.64-1.65-1.25-3.19-1.81-4.62s-1.11-2.68-1.63-3.76a7.89,7.89,0,0,0-1.72-2.47,7.71,7.71,0,0,0-2.54-1.49,8.47,8.47,0,0,0-2.58-.57,6,6,0,0,1,3,.53,12.61,12.61,0,0,1,3.78,2.45,14.67,14.67,0,0,1,2.83,3.43,33.88,33.88,0,0,1,2.11,4.17q.94,2.24,1.79,4.53t1.8,4.55a31.72,31.72,0,0,0,2.21,4.26,16.12,16.12,0,0,0,3,3.57A14.53,14.53,0,0,0,71,54.19a11.6,11.6,0,0,0,3.32,1.24,6.19,6.19,0,0,1-1.87-.18,7.88,7.88,0,0,1-1.83-.71,14.37,14.37,0,0,1-1.72-1,17.61,17.61,0,0,1-1.52-1.22"/><path class="cls-2" d="M78.73,49a3,3,0,0,0,.66-1.88A6.66,6.66,0,0,0,79,44.92a9,9,0,0,0-1.17-2.25,9.87,9.87,0,0,0-1.72-1.85,9.07,9.07,0,0,0-1.65-1,7.75,7.75,0,0,0-1.93-.67A6.7,6.7,0,0,0,70.49,39a7,7,0,0,0-2,.53,21.5,21.5,0,0,1,2.77,0,5,5,0,0,1,2.79,1.2A13.73,13.73,0,0,1,76.23,43a12.89,12.89,0,0,1,1.49,2.35,6.7,6.7,0,0,1,.65,2.14A2.06,2.06,0,0,1,78,49a2.33,2.33,0,0,1-1.27.82,4,4,0,0,1-1.59.06,6.86,6.86,0,0,1-3-1.34,10.67,10.67,0,0,1-2.41-2.76,30,30,0,0,1-1.85-3.48c-.56-1.24-1.1-2.52-1.61-3.86s-1.09-2.66-1.74-4a29.93,29.93,0,0,0-2.24-3.83,16.58,16.58,0,0,0-3.12-3.33,15.48,15.48,0,0,0-2.44-1.63A6,6,0,0,0,54,25c.42.14.88.32,1.37.54a5.66,5.66,0,0,1,1.38.82,12.81,12.81,0,0,1,2.66,3A32.89,32.89,0,0,1,61.46,33c.63,1.32,1.25,2.69,1.85,4.11s1.23,2.82,1.93,4.18a31.64,31.64,0,0,0,2.33,3.9,15.6,15.6,0,0,0,3,3.25,8.82,8.82,0,0,0,1.88,1.16,9.08,9.08,0,0,0,2.22.7,5.41,5.41,0,0,0,2.2-.06A3.23,3.23,0,0,0,78.73,49"/><path class="cls-2" d="M158.45,37.19c0,2.16,1,4.29,3.74,5.67,4.85,2.45,11.61-.92,12.95-5.81C177.92,27,172,20.21,163.51,17.53c-7.84-2.48-17.07,2.55-22.48,9-5.73,6.8-10.05,11.1-14.65,12.82-6.91,2.6-15.87-1.06-20.91-8.14-3.88-5.44-2.54-10.82,1.47-15,2.41,8.66,8.68,16.37,17.39,13.33,11.16-3.88,4.89-16.75-4.94-18.93-.57-3.83-4.24-8.51-8.34-7.51-4.45,1.09-6.17,6.1-4.5,11.51a12.84,12.84,0,0,0-1.72,2c-3.52,4.94-4.33,10-.14,15.74,5,6.94,13.7,10.89,21.91,8,4.27-1.5,8.81-5,13.11-10.3,4.61-5.75,14.41-11.73,18.72-11.8,6.89-.12,14.14,4.62,14.82,12.71.37,3.11-.18,6.87-1.79,8.6-4.92,5.29-10.64,3.12-12-.59-.88-2.32-.18-5.37,2.83-7.42a6.92,6.92,0,0,1,.81-.43c1.62-.64,3.82-.48,4.74.82.71,1.06.84,2.77-.42,3.49-1.6.73-1.86-1.46-.35-2.15a2.42,2.42,0,0,0-2.54,0,1.77,1.77,0,0,0-.09,2.63c1.74,2,4.44-.14,4.52-1.89.17-3.78-4.11-4.74-6.39-3.29h0a7.5,7.5,0,0,0-4.08,6.45ZM118.7,10.43a13.8,13.8,0,0,0-11.44,3.48c-1.43-4.42.17-9.4,4-10.11,4.08-.75,6.69,3.2,7.43,6.63Zm.24,1.52c.18,1.81.22,3.85-1.1,4.83-.8.58-2,1-4.1,0a4.19,4.19,0,0,0,3.65.68c2-.66,2.38-3,2.21-5.35,8.31,2.42,13.5,13.5,4.7,16.65-8.57,3.06-14.35-4.83-16.69-13.28C111.35,11.9,115.39,11.12,118.94,12Z"/><path class="cls-2" d="M136,33c1.09-.48,1.55-2.54,2.57-3.22,5.32-3.61,8.73-10.09,8.3-15.1-.49-5.47-2.31-9-5.63-12s-7.92-3-9.72-2.2c-1.41.64-2.88,2.11-1.74,3.57s2.68.26,3.25-.39a4.73,4.73,0,0,1,4.61-1.39c2.25.36,6.67,4.23,7.79,8.66a2.09,2.09,0,0,1,0,.21,10.18,10.18,0,0,0-2-3.78c-1.37-1.42-3.74-2.92-6.37-1.1-2.39,1.63-1.61,3.68-1.35,4s1.46.91,2.13-.94,1.48-2.52,2.73-2.62a4.23,4.23,0,0,1,3.24,1.55,15.16,15.16,0,0,1,1.65,3.08,14.75,14.75,0,0,1-.13,8.88,14.63,14.63,0,0,0,.43-2.12c.36-2.67-.42-5.55-2.49-6.43-2.24-1-3,.22-3.16,1.27s.89,1.52,1.33,1.2a1.36,1.36,0,0,0,.47-.9s.26-1.09,1.51-.54,2,2.21,2.12,4.2a12.58,12.58,0,0,1-.73,4.58,26.9,26.9,0,0,1-3.23,5.14Z"/><path class="cls-2" d="M138.31,30.13a11.6,11.6,0,0,1,1.6-3.3c1.79-2.12,3.24-4,2.42-7.61-.78-3.38-5.6-7.08-9.21-3.53-1.66,1.64.3,2.24,1,3.68.93,1.69-.52,3.16-1.35,4.05,1.57-2-.66-3.38-1-5.08a4.24,4.24,0,0,1,1.51-3.49c2.63-2.46,7.06-.4,8.6,2.34,4.55,8.09-4,13.77-3.63,12.94"/><path class="cls-2" d="M147.73,11.24A8.18,8.18,0,0,0,146.39,18c.22-.1.35-.82.35-.82a7,7,0,0,1,1.2-5c2.85-3.43,6.71-3.92,9.22-2.76s2.63,2.6,2.63,2.6c.87-1.74-.28-2.48-.28-2.48s2.41,1.44,2.75,3.59l.61-.23a5.22,5.22,0,0,0-3.08-4.15,10.31,10.31,0,0,0-12.06,2.56"/><path class="cls-2" d="M163.22,45.28c13.26-.11,32.67-21.24,12.92-26,13,1.11,12.4,16.91-3.86,26.19Z"/><path class="cls-2" d="M174.91,44.23c.89-.08,2.42.22,3-.08,26.34-14.11,18-40.87,4.27-26C199.41,4,199.09,33.67,174.91,44.23Z"/><path class="cls-2" d="M181.74,44.54c8.18-5.3,12.06-12.91,13-16-.72,4.29-5.17,11.75-11.8,16.07Z"/><path class="cls-2" d="M144.17,52.27a17.61,17.61,0,0,1-1.52,1.22,14.37,14.37,0,0,1-1.72,1,8.24,8.24,0,0,1-1.83.71,6.19,6.19,0,0,1-1.87.18,11.6,11.6,0,0,0,3.32-1.24,14.53,14.53,0,0,0,2.64-1.88,16.08,16.08,0,0,0,3-3.57,31.77,31.77,0,0,0,2.22-4.26q1-2.23,1.8-4.55T152,35.4a33.88,33.88,0,0,1,2.11-4.17,14.67,14.67,0,0,1,2.83-3.43,12.61,12.61,0,0,1,3.78-2.45,6,6,0,0,1,3-.53,8.59,8.59,0,0,0-2.58.57,7.77,7.77,0,0,0-2.53,1.49,7.89,7.89,0,0,0-1.72,2.47c-.52,1.08-1.07,2.34-1.63,3.76s-1.17,3-1.81,4.62a54.57,54.57,0,0,1-2.25,5,44.69,44.69,0,0,1-3,5,26,26,0,0,1-4,4.53"/><path class="cls-2" d="M132.77,49a3.23,3.23,0,0,0,1.83,1.19,5.41,5.41,0,0,0,2.2.06,9.08,9.08,0,0,0,2.22-.7,8.82,8.82,0,0,0,1.88-1.16,15.6,15.6,0,0,0,3-3.25,31.64,31.64,0,0,0,2.33-3.9c.7-1.36,1.34-2.76,1.93-4.18S149.41,34.3,150,33a32.89,32.89,0,0,1,2.09-3.7,12.81,12.81,0,0,1,2.66-3,5.79,5.79,0,0,1,1.37-.82q.75-.33,1.38-.54a6,6,0,0,0-2.73.71,15.48,15.48,0,0,0-2.44,1.63,16.58,16.58,0,0,0-3.12,3.33A29.93,29.93,0,0,0,147,34.46q-1,2-1.74,4c-.51,1.34-1.05,2.62-1.61,3.86a30,30,0,0,1-1.85,3.48,10.67,10.67,0,0,1-2.41,2.76,6.34,6.34,0,0,1-1.4.84,6.47,6.47,0,0,1-1.64.5,4,4,0,0,1-1.59-.06A2.33,2.33,0,0,1,133.5,49a2.06,2.06,0,0,1-.37-1.56,6.46,6.46,0,0,1,.65-2.14A12.37,12.37,0,0,1,135.27,43a13.73,13.73,0,0,1,2.18-2.2,5,5,0,0,1,2.79-1.2,21.5,21.5,0,0,1,2.77,0,7.14,7.14,0,0,0-2-.53,6.7,6.7,0,0,0-2,.11,7.75,7.75,0,0,0-1.93.67,9.07,9.07,0,0,0-1.65,1,9.87,9.87,0,0,0-1.72,1.85,9,9,0,0,0-1.17,2.25,6.66,6.66,0,0,0-.38,2.23,3,3,0,0,0,.66,1.88"/><line class="cls-1" x1="211.5" y1="105.64" y2="105.64"/><rect class="cls-1" y="104.39" width="211.5" height="2.5"/><path class="cls-2" d="M158.46,112.86a7.46,7.46,0,0,0,4.07,6.45h0c2.28,1.45,6.56.49,6.39-3.29-.08-1.75-2.78-3.88-4.51-1.89a1.76,1.76,0,0,0,.08,2.63,2.44,2.44,0,0,0,2.54,0c-1.51-.7-1.25-2.88.35-2.16,1.26.73,1.13,2.43.42,3.49-.92,1.3-3.11,1.47-4.74.82a8.8,8.8,0,0,1-.81-.42c-3-2.06-3.71-5.1-2.83-7.43,1.4-3.71,7.13-5.87,12-.59,1.61,1.73,2.17,5.49,1.79,8.61-.68,8.08-7.93,12.83-14.81,12.71-4.32-.08-14.12-6-18.73-11.8-4.29-5.35-8.84-8.8-13.11-10.31-8.21-2.89-16.89,1.06-21.91,8-4.19,5.77-3.38,10.79.14,15.73a14,14,0,0,0,1.72,2c-1.67,5.4,0,10.41,4.5,11.5,4.1,1,7.77-3.68,8.34-7.51,9.83-2.18,16.1-15,4.94-18.93-8.71-3-15,4.67-17.39,13.33-4-4.21-5.35-9.59-1.47-15,5-7.07,14-10.74,20.91-8.14,4.6,1.72,8.92,6,14.65,12.82,5.42,6.44,14.65,11.47,22.48,9,8.52-2.69,14.41-9.46,11.63-19.53-1.34-4.88-8.1-8.26-12.95-5.81a6.05,6.05,0,0,0-3.73,5.67ZM118.7,139.62c-.74,3.43-3.35,7.38-7.43,6.63-3.84-.7-5.44-5.68-4-10.11a13.77,13.77,0,0,0,11.44,3.48Zm-11.09-5.06c2.34-8.45,8.12-16.34,16.69-13.27,8.81,3.14,3.61,14.22-4.7,16.64.18-2.3-.25-4.69-2.21-5.35a4.17,4.17,0,0,0-3.65.69c2.06-1,3.3-.58,4.1,0,1.33,1,1.29,3,1.1,4.82C115.39,138.93,111.35,138.16,107.61,134.56Z"/><path class="cls-2" d="M136,117.07c1.09.47,1.56,2.53,2.57,3.22,5.32,3.6,8.74,10.08,8.3,15.09-.49,5.48-2.31,9.05-5.63,12s-7.92,3-9.72,2.2c-1.41-.64-2.88-2.11-1.74-3.57s2.68-.26,3.25.39a4.73,4.73,0,0,0,4.61,1.4c2.26-.37,6.67-4.24,7.79-8.67a2.09,2.09,0,0,0,0-.21,10,10,0,0,1-2,3.78c-1.37,1.42-3.74,2.92-6.37,1.11-2.39-1.64-1.61-3.69-1.35-4s1.46-.91,2.13.95,1.48,2.52,2.73,2.61a4.23,4.23,0,0,0,3.24-1.55,15.16,15.16,0,0,0,1.65-3.08,14.75,14.75,0,0,0-.13-8.88,14.63,14.63,0,0,1,.43,2.12c.36,2.68-.42,5.56-2.49,6.43-2.24,1-3-.22-3.16-1.27s.89-1.52,1.33-1.19a1.33,1.33,0,0,1,.47.89s.26,1.09,1.51.54,2-2.21,2.12-4.2a12.62,12.62,0,0,0-.73-4.58,27.21,27.21,0,0,0-3.23-5.14Z"/><path class="cls-2" d="M138.31,119.92a11.78,11.78,0,0,0,1.6,3.31c1.79,2.11,3.24,4,2.42,7.6-.78,3.38-5.6,7.08-9.21,3.53-1.66-1.64.3-2.24,1-3.68.93-1.69-.52-3.15-1.35-4,1.57,2-.66,3.37-1,5.07a4.24,4.24,0,0,0,1.51,3.49c2.63,2.46,7.06.4,8.6-2.34,4.55-8.09-4-13.77-3.63-12.94"/><path class="cls-2" d="M147.73,138.81a8.18,8.18,0,0,1-1.34-6.73c.22.1.35.82.35.82a7,7,0,0,0,1.2,5c2.85,3.43,6.71,3.93,9.22,2.76s2.63-2.6,2.63-2.6c.87,1.74-.28,2.48-.28,2.48s2.41-1.44,2.75-3.58c.22.07.42.14.61.22a5.22,5.22,0,0,1-3.08,4.15,10.29,10.29,0,0,1-12.06-2.56"/><path class="cls-2" d="M163.22,104.77c13.26.11,32.67,21.25,12.92,26,13-1.11,12.4-16.9-3.86-26.18Z"/><path class="cls-2" d="M174.91,105.82c.89.08,2.43-.22,3,.08,26.34,14.11,18,40.87,4.27,26C199.42,146,199.09,116.38,174.91,105.82Z"/><path class="cls-2" d="M181.74,105.52c8.18,5.29,12.06,12.9,13,16-.72-4.29-5.17-11.75-11.8-16.07Z"/><path class="cls-2" d="M144.17,97.78a26.1,26.1,0,0,1,4,4.54,43.69,43.69,0,0,1,3,5,54.57,54.57,0,0,1,2.25,5c.64,1.66,1.25,3.19,1.81,4.62s1.11,2.68,1.63,3.77a8,8,0,0,0,1.72,2.46,7.71,7.71,0,0,0,2.54,1.49,8.18,8.18,0,0,0,2.58.57,6,6,0,0,1-3-.53,12.56,12.56,0,0,1-3.78-2.44,14.93,14.93,0,0,1-2.83-3.44,32.51,32.51,0,0,1-2.11-4.17q-.94-2.22-1.79-4.53t-1.8-4.55a31.72,31.72,0,0,0-2.21-4.26,16.12,16.12,0,0,0-3-3.57,15,15,0,0,0-2.64-1.88,11.6,11.6,0,0,0-3.32-1.24,6.2,6.2,0,0,1,1.87.19,7.58,7.58,0,0,1,1.83.7,13.25,13.25,0,0,1,1.72,1.06,15.83,15.83,0,0,1,1.52,1.21"/><path class="cls-2" d="M132.77,101a3,3,0,0,0-.66,1.88,6.66,6.66,0,0,0,.38,2.23,8.65,8.65,0,0,0,1.17,2.25,9.87,9.87,0,0,0,1.72,1.85,9.07,9.07,0,0,0,1.65,1,7.37,7.37,0,0,0,1.93.67,6.41,6.41,0,0,0,2,.11,7,7,0,0,0,2-.53,21.5,21.5,0,0,1-2.77,0,5,5,0,0,1-2.79-1.2,13.33,13.33,0,0,1-2.18-2.2,12.56,12.56,0,0,1-1.49-2.35,6.7,6.7,0,0,1-.65-2.14,2.06,2.06,0,0,1,.37-1.56,2.33,2.33,0,0,1,1.27-.82,4,4,0,0,1,1.59,0,6.7,6.7,0,0,1,3,1.33,10.84,10.84,0,0,1,2.41,2.76,30.82,30.82,0,0,1,1.85,3.48c.56,1.24,1.1,2.52,1.61,3.86s1.09,2.66,1.74,4a29.93,29.93,0,0,0,2.24,3.83,16.32,16.32,0,0,0,3.12,3.33,15.48,15.48,0,0,0,2.44,1.63,6,6,0,0,0,2.73.71c-.42-.14-.88-.32-1.38-.53a5.83,5.83,0,0,1-1.37-.83,12.81,12.81,0,0,1-2.66-3,31.21,31.21,0,0,1-2.09-3.7c-.63-1.32-1.25-2.69-1.85-4.11s-1.23-2.81-1.93-4.18a31.64,31.64,0,0,0-2.33-3.9,15.6,15.6,0,0,0-3-3.25,9.24,9.24,0,0,0-1.88-1.16,9.08,9.08,0,0,0-2.22-.7,5.41,5.41,0,0,0-2.2.06,3.29,3.29,0,0,0-1.83,1.19"/><path class="cls-2" d="M53.05,112.86c.05-2.16-1-4.29-3.74-5.67-4.85-2.45-11.61.93-13,5.81-2.78,10.07,3.11,16.84,11.63,19.53,7.84,2.47,17.07-2.56,22.48-9,5.73-6.8,10-11.1,14.65-12.82,6.91-2.6,15.87,1.07,20.91,8.14,3.88,5.44,2.54,10.82-1.47,15-2.41-8.66-8.68-16.36-17.39-13.33-11.16,3.88-4.89,16.75,4.94,18.93.57,3.83,4.24,8.51,8.34,7.51,4.45-1.09,6.17-6.1,4.5-11.5a13.39,13.39,0,0,0,1.72-2c3.52-4.94,4.33-10,.14-15.73-5-6.95-13.7-10.9-21.91-8-4.27,1.51-8.82,5-13.11,10.31-4.61,5.75-14.41,11.72-18.72,11.8-6.89.12-14.14-4.63-14.82-12.71-.38-3.12.18-6.88,1.79-8.61,4.92-5.28,10.64-3.12,12,.59.88,2.33.18,5.37-2.83,7.43a8.8,8.8,0,0,1-.81.42c-1.62.65-3.82.48-4.74-.82-.71-1.06-.84-2.76.42-3.49,1.6-.72,1.86,1.46.35,2.16a2.44,2.44,0,0,0,2.54,0,1.77,1.77,0,0,0,.09-2.63c-1.74-2-4.44.14-4.52,1.89-.17,3.78,4.11,4.74,6.39,3.29h0a7.49,7.49,0,0,0,4.08-6.45ZM92.8,139.62a13.77,13.77,0,0,0,11.44-3.48c1.43,4.43-.17,9.41-4,10.11-4.08.75-6.69-3.2-7.43-6.63Zm-.24-1.52c-.19-1.81-.23-3.85,1.1-4.82.8-.59,2-1,4.1,0a4.17,4.17,0,0,0-3.65-.69c-2,.66-2.38,3-2.21,5.35-8.31-2.42-13.5-13.5-4.7-16.64,8.57-3.07,14.35,4.82,16.69,13.27C100.15,138.16,96.11,138.93,92.56,138.1Z"/><path class="cls-2" d="M75.5,117.07c-1.09.47-1.55,2.53-2.57,3.22-5.32,3.6-8.73,10.08-8.3,15.09.49,5.48,2.31,9.05,5.63,12s7.92,3,9.72,2.2c1.41-.64,2.88-2.11,1.74-3.57s-2.68-.26-3.25.39a4.73,4.73,0,0,1-4.61,1.4c-2.25-.37-6.67-4.24-7.79-8.67a2.09,2.09,0,0,1,0-.21,10.11,10.11,0,0,0,2,3.78c1.37,1.42,3.74,2.92,6.37,1.11,2.39-1.64,1.61-3.69,1.35-4s-1.46-.91-2.13.95-1.48,2.52-2.73,2.61a4.23,4.23,0,0,1-3.24-1.55A15.16,15.16,0,0,1,66,138.77a14.75,14.75,0,0,1,.13-8.88,14.63,14.63,0,0,0-.43,2.12c-.36,2.68.42,5.56,2.49,6.43,2.24,1,3-.22,3.16-1.27S70.44,135.65,70,136a1.33,1.33,0,0,0-.47.89s-.26,1.09-1.51.54-2-2.21-2.12-4.2a12.62,12.62,0,0,1,.73-4.58,27.21,27.21,0,0,1,3.23-5.14Z"/><path class="cls-2" d="M73.19,119.92a11.78,11.78,0,0,1-1.6,3.31c-1.79,2.11-3.24,4-2.42,7.6.78,3.38,5.6,7.08,9.21,3.53,1.66-1.64-.3-2.24-1-3.68-.93-1.69.52-3.15,1.35-4-1.57,2,.66,3.37,1,5.07a4.24,4.24,0,0,1-1.51,3.49c-2.63,2.46-7.06.4-8.6-2.34-4.55-8.09,4-13.77,3.63-12.94"/><path class="cls-2" d="M63.77,138.81a8.18,8.18,0,0,0,1.34-6.73c-.22.1-.35.82-.35.82a7,7,0,0,1-1.2,5c-2.85,3.43-6.71,3.93-9.22,2.76s-2.63-2.6-2.63-2.6c-.87,1.74.28,2.48.28,2.48s-2.41-1.44-2.75-3.58c-.22.07-.42.14-.61.22a5.22,5.22,0,0,0,3.08,4.15,10.29,10.29,0,0,0,12.06-2.56"/><path class="cls-2" d="M48.28,104.77c-13.26.11-32.67,21.25-12.92,26-12.95-1.11-12.4-16.9,3.86-26.18Z"/><path class="cls-2" d="M36.59,105.82c-.89.08-2.43-.22-3,.08-26.34,14.11-18,40.87-4.27,26C12.08,146,12.41,116.38,36.59,105.82Z"/><path class="cls-2" d="M29.76,105.52c-8.18,5.29-12.06,12.9-13,16,.72-4.29,5.17-11.75,11.8-16.07Z"/><path class="cls-2" d="M67.33,97.78a15.83,15.83,0,0,1,1.52-1.21,13.25,13.25,0,0,1,1.72-1.06,7.74,7.74,0,0,1,1.83-.7,6.2,6.2,0,0,1,1.87-.19A11.6,11.6,0,0,0,71,95.86a15,15,0,0,0-2.64,1.88,16.08,16.08,0,0,0-3,3.57,31.77,31.77,0,0,0-2.22,4.26q-1,2.24-1.8,4.55t-1.79,4.53a32.51,32.51,0,0,1-2.11,4.17,14.93,14.93,0,0,1-2.83,3.44,12.56,12.56,0,0,1-3.78,2.44,6,6,0,0,1-3,.53,8.29,8.29,0,0,0,2.58-.57,7.77,7.77,0,0,0,2.53-1.49,8,8,0,0,0,1.72-2.46c.52-1.09,1.07-2.35,1.63-3.77s1.17-3,1.81-4.62a54.57,54.57,0,0,1,2.25-5,43.69,43.69,0,0,1,3-5,26.1,26.1,0,0,1,4-4.54"/><path class="cls-2" d="M78.73,101a3.29,3.29,0,0,0-1.83-1.19,5.41,5.41,0,0,0-2.2-.06,9.08,9.08,0,0,0-2.22.7,9.24,9.24,0,0,0-1.88,1.16,15.6,15.6,0,0,0-3,3.25,31.64,31.64,0,0,0-2.33,3.9q-1,2.06-1.93,4.18c-.6,1.42-1.22,2.79-1.85,4.11a31.21,31.21,0,0,1-2.09,3.7,12.81,12.81,0,0,1-2.66,3,5.83,5.83,0,0,1-1.37.83c-.5.21-1,.39-1.38.53a6,6,0,0,0,2.73-.71,15.48,15.48,0,0,0,2.44-1.63,16.32,16.32,0,0,0,3.12-3.33,29.93,29.93,0,0,0,2.24-3.83q1-2,1.74-4c.51-1.34,1-2.62,1.61-3.86a30.82,30.82,0,0,1,1.85-3.48,10.84,10.84,0,0,1,2.41-2.76,6.34,6.34,0,0,1,1.4-.84,6.44,6.44,0,0,1,1.64-.49,4,4,0,0,1,1.59,0A2.33,2.33,0,0,1,78,101a2.06,2.06,0,0,1,.37,1.56,6.7,6.7,0,0,1-.65,2.14,12.07,12.07,0,0,1-1.49,2.35,13.33,13.33,0,0,1-2.18,2.2,5,5,0,0,1-2.79,1.2,21.5,21.5,0,0,1-2.77,0,7.14,7.14,0,0,0,2,.53,6.41,6.41,0,0,0,2.05-.11,7.37,7.37,0,0,0,1.93-.67,9.07,9.07,0,0,0,1.65-1,9.87,9.87,0,0,0,1.72-1.85A8.65,8.65,0,0,0,79,105.13a6.66,6.66,0,0,0,.38-2.23,3,3,0,0,0-.66-1.88"/><text class="cls-3" transform="translate(28.43 86.24)">Main Menu</text></g></g></svg>